# xmcd
#
# Track frame offsets: 
#        150
#        23210
#        60597
#        81535
#        95527
#        119722
#        141160
#        167959
#
# Disc length: 2598 seconds
#
# Revision: 0
# Processed by: cddbd v1.5.2PL0 Copyright (c) Steve Scherf et al.
# Submitted via: ExactAudioCopy v0.95b4
#
DISCID=720a2408
DTITLE=Al Broussard - Boogie Woogie in New Orleans
DYEAR=1997
DGENRE=Blues
TTITLE0=Boogie Woogie Woman
TTITLE1=I'm confessing that I love you
TTITLE2=No money
TTITLE3=I'll be glad when you're dead, you rascal you
TTITLE4=Last night on the back porch
TTITLE5=Cecelia
TTITLE6=C.C.Rider
TTITLE7=St.Louis Blues
EXTD=
EXTT0=
EXTT1=
EXTT2=
EXTT3=
EXTT4=
EXTT5=
EXTT6=
EXTT7=
PLAYORDER=
